<?xml version="1.0"?>
<svg xmlns:rdf="http://www.w3.org/1999/02/22-rdf-syntax-ns#" xmlns="http://www.w3.org/2000/svg" xmlns:cc="http://creativecommons.org/ns#" xmlns:dc="http://purl.org/dc/elements/1.1/" xmlns:svg="http://www.w3.org/2000/svg" id="svg2807" viewBox="0 0 366.06 347.94" version="1.0" y="0" x="0">
  <g id="layer1" transform="translate(-4.4711 -13.529)">
    <g id="g2880" transform="translate(.000051975 -97.5)">
      <rect id="rect2850" stroke-linejoin="round" rx="34.55" ry="34.55" height="344.19" width="362.31" stroke="#000" stroke-linecap="round" y="112.9" x="6.3461" stroke-width="3.75" fill="#fff"/>
      <path id="path2817" transform="matrix(.96692 0 0 1.0352 .0000040628 -22.853)" d="m311.49 301.6c0.01 75.62-65.62 136.93-146.59 136.93-80.959 0-146.59-61.31-146.58-136.93-0.009-75.62 65.621-136.93 146.58-136.93 80.97 0 146.6 61.31 146.59 136.93z"/>
      <path id="path2849" fill="#969696" transform="matrix(.91978 0 0 .98474 7.7737 -7.6311)" d="m142.21 436.86c-37.43-5.48-71.129-24.28-94.04-52.45l116.73-82.81-22.69 135.26z"/>
      <path id="path2847" fill="#969696" transform="matrix(.91978 0 0 .98474 7.7737 -7.6311)" d="m175.74 165.07c36.1 2.5 69.93 17.38 94.98 41.79l-105.82 94.74 10.84-136.53z"/>
      <path id="path2818" stroke-linejoin="round" d="m311.49 301.6c0.01 75.62-65.62 136.93-146.59 136.93-80.959 0-146.59-61.31-146.58-136.93-0.009-75.62 65.621-136.93 146.58-136.93 80.97 0 146.6 61.31 146.59 136.93v0z" transform="matrix(.34631 0 0 .37077 102.34 177.55)" stroke="#000" stroke-linecap="round" stroke-width="13.954" fill="#fff"/>
      <path id="path2819" transform="matrix(.050251 0 0 .0538 151.16 273.14)" d="m311.49 301.6c0.01 75.62-65.62 136.93-146.59 136.93-80.959 0-146.59-61.31-146.58-136.93-0.009-75.62 65.621-136.93 146.58-136.93 80.97 0 146.6 61.31 146.59 136.93z"/>
      <path id="path2821" stroke="#000" stroke-width="5" fill="none" d="m126.52 269.15l29.37-19.82"/>
      <path id="path2822" stroke="#000" stroke-width="5" fill="none" d="m121.74 293.75l58.74-39.64"/>
      <path id="path2823" stroke="#000" stroke-width="5" fill="none" d="m156.25 313.21l29.37-19.82"/>
      <path id="path2842" stroke-linejoin="round" d="m333.25 184.94l-82.22 139.94-57 24.74 10.28 21.79 16.13-8.35 15.65 26.32 7.91-3.6-8.44-30.53 28.94-14.97 87.97-142.9-19.22-12.44z" fill-rule="evenodd" transform="matrix(.99372 -.11190 .11190 .99372 -35.467 21.59)" stroke="#fff" stroke-linecap="round" stroke-width="3.75" fill="#969696"/>
      <g id="g2851" stroke="#000" fill="#969696" transform="matrix(.99994 -.011145 .011145 .99994 -16.329 -10.332)" fill-rule="evenodd">
        <path id="path2852" stroke-linejoin="round" stroke-width="3.75" stroke-linecap="round" d="m332.81 177.55l-30.51 66.19 7.91 32.76 42.94-88.52-20.34-10.43z"/>
        <path id="path2854" d="m305.13 241.86l-4.29 10.3 5.26 28.9 5.35-11.66-6.32-27.54z"/>
      </g>
      <rect id="rect2864" stroke-linejoin="round" transform="rotate(-65.649)" rx="12" ry="12" height="61.902" width="47.506" stroke="#000" stroke-linecap="round" y="330.94" x="-36.628" stroke-width="3.75" fill="#969696"/>
      <path id="path2876" stroke-linejoin="round" d="m291.51 400.19c0.01 8.35-6.76 15.12-15.11 15.12s-15.12-6.77-15.12-15.12c0-8.36 6.77-15.13 15.12-15.13s15.12 6.77 15.11 15.13v0z" transform="matrix(1.0451 0 0 1.0451 -2.8581 5.3258)" stroke="#000" stroke-linecap="round" stroke-width="3.5882" fill="#969696"/>
      <path id="path2877" stroke-linejoin="round" d="m291.51 400.19c0.01 8.35-6.76 15.12-15.11 15.12s-15.12-6.77-15.12-15.12c0-8.36 6.77-15.13 15.12-15.13s15.12 6.77 15.11 15.13v0z" transform="matrix(1.0427 0 0 1 43.406 22.691)" stroke="#000" stroke-linecap="round" stroke-width="3.6724" fill="#969696"/>
      <rect id="rect2878" stroke-linejoin="round" height="67.284" width="14.539" stroke="#000" stroke-linecap="round" y="308.88" x="328.92" stroke-width="3.75" fill="#969696"/>
      <path id="path2879" stroke-linejoin="round" d="m291.51 400.19c0.01 8.35-6.76 15.12-15.11 15.12s-15.12-6.77-15.12-15.12c0-8.36 6.77-15.13 15.12-15.13s15.12 6.77 15.11 15.13v0z" transform="matrix(.82320 0 0 .78946 109.16 9.5971)" stroke="#000" stroke-linecap="round" stroke-width="4.6517"/>
    </g>
  </g>
  <metadata>
    <rdf:RDF>
      <cc:Work>
        <dc:format>image/svg+xml</dc:format>
        <dc:type rdf:resource="http://purl.org/dc/dcmitype/StillImage"/>
        <cc:license rdf:resource="http://creativecommons.org/licenses/publicdomain/"/>
        <dc:publisher>
          <cc:Agent rdf:about="http://openclipart.org/">
            <dc:title>Openclipart</dc:title>
          </cc:Agent>
        </dc:publisher>
        <dc:title>simple turntable</dc:title>
        <dc:date>2008-09-02T21:42:21</dc:date>
        <dc:description>clip art, clipart, editorial pick, image, media, music, music, png, public domain, record, record, svg, turntable, turntable, vinyl, vinyl, </dc:description>
        <dc:source>http://openclipart.org/detail/18995/simple-turntable-by-aj</dc:source>
        <dc:creator>
          <cc:Agent>
            <dc:title>AJ</dc:title>
          </cc:Agent>
        </dc:creator>
        <dc:subject>
          <rdf:Bag>
            <rdf:li>clip art</rdf:li>
            <rdf:li>clipart</rdf:li>
            <rdf:li>editorial pick</rdf:li>
            <rdf:li>image</rdf:li>
            <rdf:li>media</rdf:li>
            <rdf:li>music</rdf:li>
            <rdf:li>png</rdf:li>
            <rdf:li>public domain</rdf:li>
            <rdf:li>record</rdf:li>
            <rdf:li>svg</rdf:li>
            <rdf:li>turntable</rdf:li>
            <rdf:li>vinyl</rdf:li>
          </rdf:Bag>
        </dc:subject>
      </cc:Work>
      <cc:License rdf:about="http://creativecommons.org/licenses/publicdomain/">
        <cc:permits rdf:resource="http://creativecommons.org/ns#Reproduction"/>
        <cc:permits rdf:resource="http://creativecommons.org/ns#Distribution"/>
        <cc:permits rdf:resource="http://creativecommons.org/ns#DerivativeWorks"/>
      </cc:License>
    </rdf:RDF>
  </metadata>
</svg>
